<svg xmlns="http://www.w3.org/2000/svg" xmlns:xlink="http://www.w3.org/1999/xlink" width="500" zoomAndPan="magnify" viewBox="0 0 375 374.999991" height="500" preserveAspectRatio="xMidYMid meet" version="1.0"><defs><clipPath id="83a78e0901"><path d="M 74.152344 49 L 300.652344 49 L 300.652344 326 L 74.152344 326 Z M 74.152344 49 " clip-rule="nonzero"/></clipPath><clipPath id="86f1d57b26"><path d="M 74.152344 48.878906 L 300.652344 48.878906 L 300.652344 326.378906 L 74.152344 326.378906 Z M 74.152344 48.878906 " clip-rule="nonzero"/></clipPath><clipPath id="290eec6e95"><path d="M 91.246094 84.0625 L 283.996094 84.0625 L 283.996094 275.3125 L 91.246094 275.3125 Z M 91.246094 84.0625 " clip-rule="nonzero"/></clipPath><clipPath id="e528544045"><path d="M 196.488281 116.410156 L 245.898438 116.410156 L 245.898438 229.578125 L 196.488281 229.578125 Z M 196.488281 116.410156 " clip-rule="nonzero"/></clipPath></defs><g clip-path="url(#83a78e0901)"><path fill="#4b49ac" d="M 187.570312 49.035156 L 188.558594 49.035156 L 192.824219 51.242188 C 195.664062 52.714844 197.542969 53.679688 198.457031 54.136719 C 199.371094 54.59375 202.476562 56.078125 207.78125 58.589844 C 213.082031 61.101562 215.824219 62.367188 216 62.394531 C 216.179688 62.417969 217.585938 63.015625 220.226562 64.183594 C 222.867188 65.351562 224.894531 66.214844 226.316406 66.769531 C 227.738281 67.328125 229.792969 68.089844 232.480469 69.054688 C 235.171875 70.019531 236.871094 70.628906 237.582031 70.882812 C 238.292969 71.136719 239.179688 71.441406 240.246094 71.796875 C 241.3125 72.152344 242.683594 72.582031 244.355469 73.089844 C 246.03125 73.597656 248.164062 74.207031 250.75 74.917969 C 253.339844 75.625 255.851562 76.261719 258.285156 76.820312 C 260.722656 77.378906 262.296875 77.734375 263.007812 77.886719 C 263.71875 78.035156 265.976562 78.46875 269.78125 79.179688 C 273.585938 79.890625 275.972656 80.320312 276.9375 80.472656 C 277.902344 80.625 280.261719 81.003906 284.015625 81.613281 C 287.769531 82.222656 289.675781 82.527344 289.726562 82.527344 C 289.777344 82.527344 291.601562 82.882812 295.207031 83.59375 C 298.808594 84.304688 300.621094 84.671875 300.648438 84.699219 L 300.6875 84.734375 L 300.457031 96.078125 C 300.304688 103.640625 299.925781 113.40625 299.316406 125.382812 C 298.707031 137.359375 298.226562 145.734375 297.871094 150.503906 C 297.515625 155.273438 297.109375 159.359375 296.652344 162.757812 C 296.195312 166.160156 295.664062 169.382812 295.054688 172.425781 C 294.445312 175.472656 293.785156 178.542969 293.074219 181.636719 C 292.363281 184.734375 291.730469 187.449219 291.171875 189.78125 C 290.613281 192.117188 289.953125 194.628906 289.191406 197.316406 C 288.429688 200.007812 287.972656 201.632812 287.820312 202.191406 C 287.667969 202.75 287.441406 203.457031 287.136719 204.320312 C 286.832031 205.183594 286.476562 206.25 286.070312 207.519531 C 285.664062 208.789062 285.03125 210.613281 284.167969 213 C 283.304688 215.382812 282.59375 217.289062 282.035156 218.707031 C 281.476562 220.128906 280.792969 221.828125 279.980469 223.808594 C 279.167969 225.789062 278.128906 228.171875 276.859375 230.964844 C 275.589844 233.753906 274.832031 235.378906 274.578125 235.835938 C 274.324219 236.292969 273.398438 237.953125 271.796875 240.820312 C 270.199219 243.6875 269.234375 245.386719 268.90625 245.921875 C 268.574219 246.453125 267.789062 247.800781 266.546875 249.957031 C 265.300781 252.113281 264.492188 253.484375 264.109375 254.066406 C 263.730469 254.648438 263.144531 255.5625 262.359375 256.804688 C 261.574219 258.050781 260.9375 259.015625 260.457031 259.699219 C 259.972656 260.382812 259.414062 261.195312 258.78125 262.136719 C 258.148438 263.074219 257.539062 263.9375 256.953125 264.722656 C 256.371094 265.507812 255.914062 266.167969 255.585938 266.703125 C 255.253906 267.234375 254.773438 267.921875 254.136719 268.757812 C 253.503906 269.59375 252.894531 270.433594 252.3125 271.269531 C 251.726562 272.105469 251.09375 272.96875 250.410156 273.859375 C 249.722656 274.746094 249.140625 275.507812 248.65625 276.140625 C 248.175781 276.777344 247.148438 277.980469 245.574219 279.757812 C 244 281.53125 242.148438 283.5625 240.019531 285.847656 C 237.886719 288.128906 236.007812 290.085938 234.386719 291.707031 C 232.761719 293.332031 231.683594 294.359375 231.148438 294.789062 C 230.617188 295.222656 229.375 296.3125 227.421875 298.0625 C 225.464844 299.816406 224.273438 300.878906 223.84375 301.261719 C 223.410156 301.640625 222.34375 302.582031 220.644531 304.078125 C 218.945312 305.574219 217.828125 306.539062 217.296875 306.96875 C 216.761719 307.402344 216.152344 307.910156 215.46875 308.492188 C 214.785156 309.074219 213.832031 309.875 212.613281 310.890625 C 211.398438 311.90625 210.46875 312.652344 209.835938 313.136719 C 209.203125 313.617188 208.59375 314.050781 208.007812 314.429688 C 207.425781 314.8125 206.359375 315.46875 204.8125 316.410156 C 203.265625 317.347656 202.25 317.980469 201.765625 318.3125 C 201.285156 318.640625 200.738281 318.984375 200.128906 319.339844 C 199.523438 319.695312 198.886719 320.101562 198.226562 320.558594 C 197.566406 321.015625 197.085938 321.34375 196.78125 321.546875 C 196.476562 321.75 195.816406 322.105469 194.800781 322.613281 C 193.789062 323.121094 192.570312 323.703125 191.148438 324.363281 C 189.726562 325.023438 188.738281 325.453125 188.179688 325.65625 L 187.34375 325.960938 L 186.429688 325.734375 C 185.820312 325.582031 185.160156 325.328125 184.449219 324.972656 C 183.738281 324.617188 182.546875 324.007812 180.871094 323.144531 C 179.199219 322.28125 178.234375 321.75 177.980469 321.546875 C 177.726562 321.34375 177.078125 320.898438 176.039062 320.214844 C 175 319.53125 174.210938 319.023438 173.679688 318.691406 C 173.144531 318.363281 172.105469 317.730469 170.558594 316.789062 C 169.011719 315.851562 167.945312 315.191406 167.359375 314.8125 C 166.777344 314.429688 166.167969 314 165.535156 313.515625 C 164.898438 313.035156 164.175781 312.464844 163.363281 311.804688 C 162.550781 311.144531 161.472656 310.242188 160.128906 309.101562 C 158.785156 307.960938 157.617188 306.96875 156.628906 306.132812 C 155.636719 305.296875 154.191406 304.027344 152.289062 302.328125 C 150.386719 300.625 149.167969 299.5625 148.636719 299.128906 C 148.101562 298.699219 146.933594 297.683594 145.132812 296.085938 C 143.332031 294.488281 142.328125 293.585938 142.125 293.382812 C 141.921875 293.179688 141.023438 292.277344 139.425781 290.679688 C 137.824219 289.082031 136.710938 287.941406 136.074219 287.253906 C 135.441406 286.570312 134.046875 285.046875 131.886719 282.6875 C 129.730469 280.328125 128.4375 278.882812 128.007812 278.347656 C 127.574219 277.816406 126.941406 277.03125 126.101562 275.988281 C 125.265625 274.949219 124.605469 274.113281 124.125 273.476562 C 123.640625 272.84375 123.160156 272.183594 122.679688 271.496094 C 122.195312 270.8125 121.6875 270.101562 121.15625 269.367188 C 120.621094 268.628906 120.140625 267.972656 119.710938 267.386719 C 119.277344 266.804688 118.910156 266.285156 118.605469 265.828125 C 118.300781 265.371094 117.882812 264.773438 117.347656 264.039062 C 116.816406 263.300781 116.359375 262.640625 115.980469 262.058594 C 115.597656 261.476562 115.089844 260.714844 114.457031 259.773438 C 113.824219 258.835938 113.339844 258.101562 113.011719 257.566406 C 112.679688 257.035156 112.148438 256.199219 111.410156 255.054688 C 110.675781 253.914062 110.195312 253.128906 109.964844 252.695312 C 109.738281 252.265625 109.101562 251.171875 108.0625 249.421875 C 107.023438 247.671875 106.335938 246.53125 106.007812 245.996094 C 105.675781 245.464844 104.851562 244.003906 103.535156 241.621094 C 102.214844 239.234375 101.222656 237.433594 100.566406 236.214844 C 99.90625 234.996094 99.320312 233.855469 98.8125 232.789062 C 98.304688 231.726562 97.597656 230.125 96.683594 227.996094 C 95.769531 225.863281 95.3125 224.773438 95.3125 224.722656 C 95.3125 224.671875 94.855469 223.503906 93.941406 221.21875 C 93.027344 218.9375 92.316406 217.136719 91.8125 215.816406 C 91.304688 214.496094 90.59375 212.492188 89.679688 209.800781 C 88.765625 207.113281 87.851562 204.246094 86.9375 201.199219 C 86.027344 198.15625 85.011719 194.449219 83.894531 190.085938 C 82.777344 185.722656 81.992188 182.476562 81.535156 180.34375 C 81.078125 178.210938 80.445312 175.117188 79.632812 171.054688 C 78.820312 166.996094 78.335938 164.332031 78.183594 163.0625 C 78.03125 161.796875 77.703125 157.914062 77.195312 151.417969 C 76.6875 144.921875 76.359375 140.023438 76.207031 136.726562 C 76.054688 133.425781 75.875 129.925781 75.671875 126.222656 C 75.46875 122.515625 75.191406 116.453125 74.835938 108.027344 C 74.480469 99.605469 74.304688 93.640625 74.304688 90.140625 L 74.304688 84.886719 L 74.796875 84.621094 C 75.128906 84.445312 76.027344 84.226562 77.5 83.972656 C 78.972656 83.722656 81 83.390625 83.589844 82.984375 C 86.179688 82.578125 90.109375 81.917969 95.386719 81.003906 C 100.667969 80.09375 104.445312 79.433594 106.730469 79.027344 C 109.015625 78.621094 112.035156 77.988281 115.789062 77.125 C 119.542969 76.261719 122.792969 75.449219 125.53125 74.6875 C 128.273438 73.925781 130.632812 73.214844 132.613281 72.554688 C 134.589844 71.898438 136.136719 71.390625 137.253906 71.035156 C 138.371094 70.679688 139.4375 70.324219 140.453125 69.96875 C 141.46875 69.613281 143.496094 68.851562 146.542969 67.683594 C 149.585938 66.515625 152.441406 65.335938 155.105469 64.144531 C 157.769531 62.953125 159.191406 62.34375 159.367188 62.316406 C 159.546875 62.292969 160.828125 61.722656 163.210938 60.605469 C 165.597656 59.488281 167.753906 58.472656 169.683594 57.5625 C 171.609375 56.648438 173.515625 55.734375 175.390625 54.820312 C 177.269531 53.90625 179.601562 52.714844 182.394531 51.242188 L 186.582031 49.035156 Z M 187.570312 49.035156 " fill-opacity="1" fill-rule="evenodd"/></g><g clip-path="url(#86f1d57b26)"><path stroke-linecap="butt" transform="matrix(0.152241, 0, 0, 0.152241, 74.074754, 48.806738)" fill="none" stroke-linejoin="miter" d="M 745.497195 1.500371 L 751.988735 1.500371 L 780.007553 15.997287 C 798.661108 25.670451 811.00273 32.008041 817.006763 35.010057 C 823.010795 38.012074 843.409111 47.762212 878.253027 64.260472 C 913.071284 80.758733 931.083382 89.072009 932.238003 89.251617 C 933.418283 89.405566 942.655256 93.33128 960.000239 101.003099 C 977.345222 108.674918 990.661859 114.345394 1000.001465 117.988866 C 1009.341071 121.657997 1022.837315 126.661358 1040.490197 132.998948 C 1058.168738 139.336538 1069.33008 143.339226 1073.999883 145.007013 C 1078.669687 146.6748 1084.494111 148.676144 1091.498816 151.011046 C 1098.503521 153.345947 1107.509569 156.168356 1118.491304 159.503929 C 1129.498697 162.839503 1143.508107 166.842191 1160.493874 171.511994 C 1177.5053 176.156139 1194.00356 180.338435 1209.988655 184.007566 C 1225.999409 187.676697 1236.339687 190.011599 1241.00949 191.012271 C 1245.679293 191.987285 1260.509767 194.835352 1285.500911 199.505155 C 1310.492055 204.174958 1326.169252 206.997366 1332.506841 207.998039 C 1338.844431 208.998711 1354.34202 211.487562 1378.999607 215.49025 C 1403.657193 219.492938 1416.178424 221.494283 1416.511981 221.494283 C 1416.845538 221.494283 1428.827945 223.829184 1452.510518 228.498987 C 1476.167433 233.16879 1488.072865 235.580667 1488.252473 235.760275 L 1488.509055 235.991199 L 1486.995218 310.502783 C 1485.994546 360.177172 1483.505695 424.322819 1479.503006 502.991041 C 1475.500318 581.659262 1472.344352 636.670569 1470.009451 667.999303 C 1467.674549 699.328037 1465.00609 726.166576 1462.004074 748.489261 C 1459.002058 770.837605 1455.512534 792.005668 1451.509846 811.993452 C 1447.507158 832.006894 1443.170912 852.174286 1438.501109 872.495627 C 1433.831306 892.842626 1429.674668 910.675116 1426.005537 925.993096 C 1422.336406 941.336735 1418.00016 957.834995 1412.996799 975.487878 C 1407.993439 993.166418 1404.991423 1003.840254 1403.990751 1007.509385 C 1402.990079 1011.178516 1401.5019 1015.822661 1399.500555 1021.493136 C 1397.499211 1027.163611 1395.16431 1034.168316 1392.495851 1042.50725 C 1389.827392 1050.846184 1385.670754 1062.828591 1380.000279 1078.505787 C 1374.329803 1094.157325 1369.66 1106.678555 1365.990869 1115.992503 C 1362.321738 1125.332109 1357.831543 1136.493452 1352.494625 1149.502189 C 1347.157707 1162.510926 1340.33261 1178.162464 1331.993676 1196.508119 C 1323.654742 1214.828116 1318.67704 1225.501952 1317.009253 1228.503968 C 1315.341466 1231.505985 1309.260459 1242.410745 1298.740573 1261.243907 C 1288.246345 1280.077069 1281.908755 1291.238411 1279.753461 1294.753593 C 1277.572509 1298.243116 1272.415199 1307.095215 1264.255873 1321.258574 C 1256.070888 1335.421933 1250.759629 1344.427982 1248.245119 1348.251062 C 1245.756268 1352.074143 1241.907529 1358.078175 1236.750219 1366.237502 C 1231.592909 1374.422486 1227.410613 1380.760076 1224.254647 1385.250272 C 1221.073023 1389.740467 1217.403892 1395.077385 1213.247254 1401.261025 C 1209.090616 1407.419007 1205.087928 1413.089482 1201.239189 1418.246793 C 1197.416109 1423.404103 1194.414092 1427.740348 1192.258799 1431.25553 C 1190.077847 1434.745053 1186.921881 1439.260907 1182.739584 1444.751774 C 1178.582947 1450.242641 1174.580258 1455.759167 1170.757178 1461.250034 C 1166.908439 1466.740902 1162.751801 1472.411377 1158.261606 1478.26146 C 1153.745752 1484.085885 1149.922671 1489.089245 1146.741047 1493.245883 C 1143.585081 1497.428179 1136.836959 1505.330923 1126.496681 1517.005431 C 1116.156403 1528.65428 1103.994388 1541.996575 1090.010637 1557.006656 C 1076.001228 1571.99108 1063.659605 1584.845867 1053.011428 1595.494045 C 1042.337592 1606.16788 1035.255913 1612.916003 1031.740731 1615.738411 C 1028.251208 1618.586478 1020.091882 1625.745132 1007.262752 1637.240032 C 994.407964 1648.76059 986.582195 1655.739637 983.759787 1658.254146 C 980.91172 1660.742997 973.907016 1666.926637 962.745673 1676.753751 C 951.58433 1686.580864 944.246068 1692.918454 940.756545 1695.740862 C 937.241364 1698.588929 933.238675 1701.924502 928.74848 1705.747583 C 924.258285 1709.570664 917.99767 1714.830607 909.992293 1721.501754 C 902.012574 1728.172901 895.905909 1733.073629 891.749271 1736.255253 C 887.592633 1739.411219 883.589944 1742.259285 879.741206 1744.748137 C 875.918125 1747.262646 868.91342 1751.573233 858.75275 1757.756874 C 848.592079 1763.914856 841.920932 1768.071494 838.739308 1770.252446 C 835.583342 1772.40774 831.991186 1774.665666 827.988497 1777.000568 C 824.011467 1779.335469 819.829171 1782.003928 815.492925 1785.005945 C 811.15668 1788.007961 808.000714 1790.163255 805.99937 1791.497484 C 803.998025 1792.831714 799.66178 1795.166615 792.990632 1798.502189 C 786.345143 1801.837763 778.339767 1805.660843 769.00016 1809.997089 C 759.660554 1814.333335 753.169015 1817.155743 749.499884 1818.489973 L 744.009016 1820.491317 L 738.004984 1819.003138 C 734.002295 1818.002466 729.666049 1816.334679 724.996246 1813.999777 C 720.326443 1811.664876 712.500674 1807.662187 701.493281 1801.991712 C 690.511546 1796.321237 684.173957 1792.831714 682.50617 1791.497484 C 680.838383 1790.163255 676.579112 1787.238213 669.754015 1782.748018 C 662.928918 1778.257823 657.74595 1774.922249 654.256427 1772.741297 C 650.741245 1770.586003 643.916148 1766.429365 633.755478 1760.245725 C 623.594807 1754.087743 616.590103 1749.751497 612.741364 1747.262646 C 608.918283 1744.748137 604.915595 1741.925728 600.758957 1738.744104 C 596.576661 1735.588138 591.829883 1731.842032 586.492965 1727.505787 C 581.156047 1723.169541 574.074368 1717.242483 565.247927 1709.750271 C 556.421486 1702.25806 548.749666 1695.740862 542.258127 1690.249995 C 535.740929 1684.759127 526.247373 1676.420193 513.751801 1665.258851 C 501.256229 1654.07185 493.250852 1647.092803 489.761329 1644.244737 C 486.246148 1641.422328 478.574328 1634.751181 466.745871 1624.256953 C 454.917414 1613.762725 448.323241 1607.835667 446.989012 1606.501438 C 445.654782 1605.167208 439.753383 1599.240151 429.259155 1588.745923 C 418.739269 1578.251695 411.426665 1570.759483 407.244369 1566.24363 C 403.087731 1561.753434 393.927732 1551.746713 379.738715 1536.249125 C 365.575356 1520.751537 357.082473 1511.257981 354.260064 1507.742799 C 351.411997 1504.253276 347.255359 1499.095966 341.738834 1492.245211 C 336.247966 1485.420114 331.911721 1479.929247 328.755755 1475.746951 C 325.574131 1471.590313 322.418165 1467.254067 319.262199 1462.738213 C 316.080575 1458.248018 312.745001 1453.578215 309.255478 1448.754462 C 305.740297 1443.905051 302.584331 1439.594464 299.761922 1435.745725 C 296.913856 1431.922644 294.501979 1428.510096 292.500635 1425.50808 C 290.499291 1422.506063 287.753857 1418.58035 284.238676 1413.756597 C 280.749152 1408.907186 277.747136 1404.570941 275.258285 1400.74786 C 272.743776 1396.924779 269.408202 1391.921419 265.251564 1385.737779 C 261.094926 1379.579796 257.913302 1374.756044 255.758008 1371.240862 C 253.577056 1367.751339 250.087533 1362.260472 245.238122 1354.742602 C 240.41437 1347.25039 237.258404 1342.09308 235.744566 1339.245013 C 234.256387 1336.422605 230.074091 1329.238293 223.248994 1317.743393 C 216.423897 1306.248493 211.908044 1298.756281 209.75275 1295.2411 C 207.571798 1291.751576 202.157906 1282.155388 193.511072 1266.50385 C 184.838581 1250.826653 178.321383 1238.998196 174.010796 1230.992819 C 169.67455 1222.987443 165.825811 1215.495231 162.490237 1208.490526 C 159.154664 1201.51148 154.510519 1190.991594 148.506486 1177.007843 C 142.502454 1162.998433 139.500437 1155.839779 139.500437 1155.506222 C 139.500437 1155.172664 136.498421 1147.500845 130.494389 1132.490764 C 124.490356 1117.50634 119.820553 1105.677883 116.510637 1097.005392 C 113.175064 1088.3329 108.505261 1075.170213 102.501228 1057.491673 C 96.497196 1039.838791 90.493163 1021.005629 84.48913 1000.992187 C 78.510756 981.004403 71.839609 956.654716 64.501347 927.99444 C 57.163085 899.334165 52.005775 878.012152 49.003758 864.002743 C 46.001742 849.993334 41.845104 829.671992 36.508186 802.987403 C 31.171268 776.328472 27.989644 758.82954 26.988972 750.490606 C 25.9883 742.17733 23.833006 716.67302 20.497433 674.003336 C 17.161859 631.333651 15.006565 599.158195 14.005893 577.502624 C 13.005221 555.821396 11.824941 532.831596 10.490712 508.507566 C 9.156482 484.157879 7.334746 444.336261 4.999844 388.991397 C 2.664943 333.67219 1.510321 294.492029 1.510321 271.502229 L 1.510321 236.991871 L 4.743262 235.247109 C 6.924214 234.092488 12.825613 232.655625 22.498777 230.987838 C 32.171941 229.34571 45.488577 227.164758 62.500003 224.496299 C 79.511428 221.82784 105.323637 217.491594 139.987944 211.487562 C 174.67791 205.509187 199.489447 201.172942 214.499528 198.504483 C 229.509609 195.836024 249.343444 191.679386 274.00103 186.008911 C 298.658617 180.338435 320.006288 175.001518 337.992728 169.998157 C 356.004826 164.994797 371.502414 160.324994 384.511151 155.988748 C 397.49423 151.67816 407.654901 148.342587 414.993163 146.007685 C 422.331425 143.672784 429.33613 141.337882 436.007277 139.00298 C 442.678424 136.668079 455.99506 131.664718 476.008502 123.992899 C 495.996286 116.32108 514.752473 108.572285 532.251406 100.746516 C 549.750338 92.920748 559.089945 88.918059 560.244566 88.738451 C 561.424846 88.584502 569.840755 84.838396 585.492293 77.500134 C 601.169489 70.161872 615.332848 63.490725 628.008028 57.51235 C 640.657549 51.508318 653.17878 45.504285 665.494744 39.500253 C 677.836367 33.49622 693.154347 25.670451 711.500002 15.997287 L 739.005656 1.500371 Z M 745.497195 1.500371 " stroke="#000000" stroke-width="2" stroke-opacity="1" stroke-miterlimit="4"/></g><g clip-path="url(#290eec6e95)"><path fill="#fdfdfd" d="M 283.738281 110.375 C 226.585938 123.519531 187.492188 84.078125 187.492188 84.078125 C 187.492188 84.078125 148.398438 123.519531 91.242188 110.375 C 91.242188 110.375 100.066406 244.515625 187.214844 275.324219 C 187.214844 275.324219 125.8125 245.398438 113.097656 132.445312 C 113.097656 132.445312 158.457031 135.703125 187.492188 108.535156 C 216.527344 135.703125 261.882812 132.445312 261.882812 132.445312 C 258.285156 180.398438 250.566406 212.566406 241.40625 234.066406 C 278.933594 183.402344 283.738281 110.375 283.738281 110.375 " fill-opacity="1" fill-rule="nonzero"/></g><g clip-path="url(#e528544045)"><path fill="#fdfdfd" d="M 232.96875 116.410156 L 196.488281 190.726562 L 216.886719 190.851562 L 211.667969 229.578125 L 245.898438 170.984375 L 225.167969 170.34375 L 232.96875 116.410156 " fill-opacity="1" fill-rule="nonzero"/></g></svg>